Coordinates
version=1
nRows=21
nColumns=33
inDegrees=yes

Units are S.I. units (second, meters, Newtons, ...)
Angles are in degrees.

endheader
time	ground_thorax_rot_x	ground_thorax_rot_y	ground_thorax_rot_z	ground_thorax_tx	ground_thorax_ty	ground_thorax_tz	clav_prot_r	clav_elev_r	scapula_abduction_r	scapula_elevation_r	scapula_upward_rot_r	scapula_winging_r	shoulder_elv_r	plane_of_elev_r	axial_rot_r	elbow_flexion_r	pro_sup_r	wrist_flex_r	wrist_dev_r	clav_prot_l	clav_elev_l	scapula_abduction_l	scapula_elevation_l	scapula_upward_rot_l	scapula_winging_l	shoulder_elv_l	plane_of_elev_l	axial_rot_l	elbow_flexion_l	pro_sup_l	wrist_flex_l	wrist_dev_l
      5.41000000	    -39.68761962	      0.05848403	      0.26667480	    -74.95095114	    870.09056460	     -8.23517639	      5.71177332	    -45.00000000	     45.00000000	    -45.00000000	     -6.54904434	   2424.74954479	  -1730.49458392	     31.56049770	     71.90583176	     18.08530322	     73.27750165	     16.34396516	      4.40354044	     16.17830347	     43.18866390	    -45.00000000	    -45.00000000	    -28.25851081	  -1715.90116282	  -1897.83471574	    137.22809623	    172.15696301	   1090.64451700	     14.61989592	     11.40740504	    -21.97751704
      5.42000000	    -39.57857370	     -0.15059772	      0.38338779	    -70.32371906	    866.43734041	     -7.98839030	      5.78233454	    -45.00000000	     45.00000000	    -45.00000000	     -6.63997312	   2425.34268256	  -1730.74252937	     31.44442714	     70.95226523	     17.87084350	     71.07033560	     16.76410007	      4.68901072	     16.08605337	     43.35551356	    -45.00000000	    -45.00000000	    -27.89660824	  -1716.14698272	  -1898.30893972	    136.93465236	    172.88440104	   1090.36794238	     13.74232998	     11.65894568	    -21.83584062
      5.43000000	    -39.45382503	      0.00251657	      0.25215363	    -65.77183953	    862.70971589	     -7.74336377	      5.43582058	    -45.00000000	     45.00000000	    -45.00000000	     -6.16564987	   2425.67005963	  -1731.21916538	     31.42923761	     70.46479310	     17.41638065	     68.13079291	     16.93505382	      4.97872503	     16.30530088	     43.49103978	    -45.00000000	    -45.00000000	    -27.48022968	  -1716.84844975	  -1898.51246052	    136.81036892	    174.16591700	   1090.17208039	     13.09178100	     12.19949403	    -21.68701003
      5.44000000	    -39.37132131	     -0.57649834	      0.67356496	    -61.30574161	    858.92959446	     -7.50345160	      6.06062077	    -45.00000000	     45.00000000	    -45.00000000	     -7.25969855	   2426.15845646	  -1731.55490695	     31.70293683	     69.75525629	     17.10599570	     65.70204027	     17.17256129	      5.28944928	     15.63238539	     43.24755635	    -45.00000000	    -45.00000000	    -28.21354792	  -1716.72893416	  -1898.72320753	    135.98577081	    174.54166861	   1089.97666773	     12.81752953	     12.50966988	    -21.55197100
      5.45000000	    -39.25760683	      0.14876607	      0.04642732	    -56.93703565	    855.12305190	     -7.27023394	      4.95687495	    -45.00000000	     45.00000000	    -45.00000000	     -5.37014158	   2426.47113702	  -1732.10756581	     31.29615442	     69.52777866	     16.53486269	     61.31568672	     17.40388373	      5.71035315	     16.46025482	     43.75108447	    -45.00000000	    -45.00000000	    -26.82985061	  -1717.97873929	  -1899.02934006	    136.48260323	    176.09478737	   1089.79376882	     12.33562931	     12.93754374	    -21.36468512
      5.46000000	    -39.16547858	      0.03984629	      0.15927965	    -52.61793488	    851.29812632	     -6.98957391	      4.94455797	    -45.00000000	     45.00000000	    -45.00000000	     -5.55477657	   2427.02516874	  -1732.44520276	     31.17745341	     68.90288800	     15.92453675	     57.03041173	     17.74189687	      6.26589980	     16.60563272	     43.84371126	    -45.00000000	    -45.00000000	    -26.90178073	  -1718.46974827	  -1899.23934598	    136.26986030	    176.56861094	   1089.66787894	     12.01573214	     13.08143720	    -21.19495073
      5.47000000	    -39.08161985	     -0.21793826	      0.35203803	    -48.35451078	    847.48487711	     -6.64915286	      5.02855799	    -45.00000000	     45.00000000	    -45.00000000	     -5.77356273	   2427.55670529	  -1732.72555171	     31.05619339	     68.43813437	     15.45010284	     52.96897789	     18.06708940	      6.84271110	     16.65220107	     43.88024994	    -45.00000000	    -45.00000000	    -27.17356762	  -1718.85703388	  -1899.51773688	    135.98924516	    177.08889329	   1089.48213933	     11.70533647	     13.12934356	    -21.01386186
      5.48000000	    -39.02535412	      0.08340233	      0.10664587	    -44.16545585	    843.71094650	     -6.24199987	      4.67913780	    -45.00000000	     45.00000000	    -45.00000000	     -5.32101170	   2427.91639620	  -1733.25301159	     30.96605367	     68.08082379	     14.68178887	     48.04567572	     18.11543655	      7.42473186	     16.80404383	     44.02999658	    -45.00000000	    -45.00000000	    -26.65249113	  -1719.59151054	  -1899.73741503	    135.95061477	    177.87734388	   1089.28659908	     11.41148942	     13.55894218	    -20.80263076
      5.49000000	    -38.99877097	     -0.02752208	      0.14592824	    -40.06437832	    840.00531467	     -5.76816628	      4.66718139	    -45.00000000	     45.00000000	    -45.00000000	     -5.42844784	   2428.45377364	  -1733.59543219	     30.78491452	     67.82905170	     14.11402526	     43.38777685	     18.31934338	      8.12721092	     16.95552939	     44.10620911	    -45.00000000	    -45.00000000	    -26.75608549	  -1720.02726603	  -1899.93168860	    135.71710701	    178.33444395	   1089.09253371	     11.20564936	     13.63860163	    -20.60721255
      5.50000000	    -38.98596219	     -0.01663676	      0.04854984	    -36.07941713	    836.40144141	     -5.22134113	      4.51492160	    -45.00000000	     45.00000000	    -45.00000000	     -5.30503492	   2428.86387347	  -1734.09938566	     30.66774647	     67.75383335	     13.44417233	     38.57732476	     18.27266504	      8.71809219	     16.96795450	     44.23529665	    -45.00000000	    -45.00000000	    -26.51233639	  -1720.58352606	  -1900.19751595	    135.67446917	    178.81610934	   1088.86610839	     11.09337052	     13.85752037	    -20.38895001
      5.51000000	    -38.87045750	     -0.00384288	     -0.01966051	    -32.21920821	    832.92100620	     -4.60578673	      4.36417357	    -45.00000000	     45.00000000	    -45.00000000	     -5.12668059	   2429.17929164	  -1734.51249055	     30.57068011	     67.93145343	     12.78238770	     33.81968852	     18.14779368	      9.26949408	     16.77809625	     44.11990391	    -45.00000000	    -44.70813246	    -26.01240880	  -1720.94464055	  -1900.47806637	    135.63050646	    179.06151539	   1088.66494300	     11.16189699	     14.14394626	    -20.18593200
      5.52000000	    -38.69535941	     -0.20401632	      0.01720817	    -28.49855290	    829.58714547	     -3.92701551	      4.33348944	    -45.00000000	     45.00000000	    -45.00000000	     -5.15610915	   2429.74494146	  -1734.69405488	     30.31767755	     68.27079696	     12.25064522	     29.68544645	     18.12280400	      9.95006530	     16.71504211	     43.70660657	    -45.00000000	    -44.07535591	    -25.56130485	  -1721.03647981	  -1900.62923377	    135.60652479	    179.10006667	   1088.42489797	     11.32491548	     14.22576320	    -20.00335331
      5.53000000	    -38.57904297	     -0.86478453	      0.55400630	    -24.92263270	    826.41697546	     -3.19932140	      4.96810695	    -45.00000000	     45.00000000	    -45.00000000	     -6.41527420	   2429.93037877	  -1734.96220270	     30.62764154	     68.80751738	     11.90517841	     26.72703814	     17.98421482	     10.23070833	     15.98492845	     43.06923066	    -45.00000000	    -43.69411210	    -26.23630255	  -1720.80504502	  -1900.78632545	    135.03134033	    178.52905386	   1088.19821879	     11.63506915	     14.29979166	    -19.79049017
      5.54000000	    -38.44658500	     -0.84137403	      0.42988339	    -21.50227072	    823.42564041	     -2.43153158	      4.85084155	    -45.00000000	     45.00000000	    -45.00000000	     -6.25175567	   2430.31080704	  -1735.20206399	     30.45430210	     69.05519259	     11.41118186	     23.97300304	     17.83529052	     10.68289348	     15.94311949	     42.86560298	    -45.00000000	    -43.07967842	    -25.49800550	  -1720.92568286	  -1900.91409212	    134.92889378	    178.51279024	   1087.85715101	     11.95052233	     14.39891911	    -19.57383737
      5.55000000	    -38.32533927	     -0.21418972	     -0.46261376	    -18.24407070	    820.62501636	     -1.63402419	      3.88992406	    -45.00000000	     45.00000000	    -45.00000000	     -4.56646503	   2430.76731486	  -1735.55583761	     29.93854010	     69.81915608	     11.00382011	     20.20846353	     17.61847622	     11.15674420	     15.90940098	     43.11857132	    -45.00000000	    -42.50800860	    -23.28434567	  -1721.57578711	  -1901.30336236	    135.76445126	    178.83280831	   1087.68455975	     12.46386634	     14.58585310	    -19.44774414
      5.56000000	    -38.23547218	     -0.42846046	     -0.48855004	    -15.15949483	    818.02973671	     -0.81612858	      3.87712865	    -45.00000000	     45.00000000	    -45.00000000	     -4.61326905	   2431.09880247	  -1735.79224309	     29.78444809	     70.50746333	     10.64471336	     17.27740003	     17.44660664	     11.51060497	     15.74359047	     42.89132318	    -45.00000000	    -41.96432531	    -22.85529138	  -1721.64781459	  -1901.48022314	    135.77132183	    178.70635088	   1087.38200167	     13.02814996	     14.56602199	    -19.28623072
      5.57000000	    -38.17473658	     -0.59839980	     -0.51390472	    -12.25897626	    815.64654811	      0.01494064	      3.88204541	    -45.00000000	     45.00000000	    -45.00000000	     -4.72608046	   2431.46170655	  -1735.97096286	     29.63075554	     71.19193183	     10.31951874	     14.97336691	     17.28084845	     11.82753075	     15.54979045	     42.55636400	    -45.00000000	    -41.50644129	    -22.45298605	  -1721.76978463	  -1901.64415334	    135.71762239	    178.63312528	   1087.04964832	     13.59559007	     14.57118131	    -19.11920632
      5.58000000	    -38.14466192	     -0.81215702	     -0.58426884	     -9.54966365	    813.47937109	      0.85263462	      3.87090241	    -45.00000000	     45.00000000	    -45.00000000	     -4.75436385	   2431.79214869	  -1736.17566932	     29.46682588	     71.81007540	     10.09700464	     13.16539922	     17.14924719	     12.07622401	     15.38657447	     42.30974994	    -45.00000000	    -41.06299817	    -22.06442280	  -1721.81057352	  -1901.77569972	    135.71326025	    178.63001614	   1086.80548146	     14.13938086	     14.52696347	    -18.98942465
      5.59000000	    -38.09232633	     -0.89508849	     -0.66588300	     -7.04073138	    811.53255078	      1.69068559	      3.84310902	    -45.00000000	     45.00000000	    -45.00000000	     -4.75388535	   2432.04172152	  -1736.32276829	     29.32292329	     72.41196718	      9.86397489	     11.71484159	     17.01237002	     12.24319181	     15.15568285	     42.10256088	    -45.00000000	    -40.64948258	    -21.59165508	  -1721.92839156	  -1901.93084559	    135.67596955	    178.58192190	   1086.53835123	     14.70190671	     14.49883493	    -18.84836602
      5.60000000	    -38.05360485	     -1.54205305	     -0.23811952	     -4.73767996	    809.80759163	      2.52359667	      4.25503940	    -45.00000000	     45.00000000	    -45.00000000	     -5.54015152	   2432.05109861	  -1736.56732469	     29.42843527	     73.15791207	      9.70159987	     10.95352708	     16.90997879	     12.15298797	     14.57786822	     41.43091399	    -45.00000000	    -40.05803909	    -21.88296240	  -1721.70637637	  -1901.88301597	    135.52830992	    178.26993176	   1086.26048513	     15.14404816	     14.51868273	    -18.64463798
      5.61000000	    -38.03940930	     -1.81225535	     -0.24556015	     -2.64713824	    808.30471315	      3.34732036	      4.24999767	    -45.00000000	     45.00000000	    -45.00000000	     -5.78278951	   2432.27165032	  -1736.70663213	     29.37146456	     73.40029783	      9.54002895	     10.32438470	     16.81089908	     12.17416500	     14.51588251	     41.22829681	    -45.00000000	    -39.66463640	    -21.60901553	  -1721.88569934	  -1901.93571361	    135.69220789	    178.31567023	   1086.00218043	     15.53183976	     14.47409916	    -18.48466829
